# xmcd
#
# Track frame offsets:
#	150
#	11083
#	30522
#	52840
#	65658
#	76049
#	91741
#	107534
#	119792
#
# Disc length: 1677 seconds
#
# Revision: 1
# Processed by: cddbd v1.5.1PL0 Copyright (c) Steve Scherf et al.
# Submitted via: audiograbber 1.83.01
#
DISCID=65068b09
DTITLE=Pompás Gedeon - Kék Lyuk 2005 január 27.
DYEAR=2005
DGENRE=
TTITLE0=Pompás Gedeon - Mókázás
TTITLE1=Pompás Gedeon - Come Together
TTITLE2=Pompás Gedeon - Oh, Darling
TTITLE3=Pompás Gedeon - Drive My Car
TTITLE4=Pompás Gedeon - Trouble
TTITLE5=Pompás Gedeon - Reconsider Baby
TTITLE6=Pompás Gedeon - Don't Let Me Down
TTITLE7=Pompás Gedeon - Besame Mucho
TTITLE8=Pompás Gedeon - Zenekar bemutatása
EXTD=
EXTT0=
EXTT1=
EXTT2=
EXTT3=
EXTT4=
EXTT5=
EXTT6=
EXTT7=
EXTT8=
PLAYORDER=
